<?xml version="1.0" encoding="UTF-8" standalone="no" ?>
<!DOCTYPE svg PUBLIC "-//W3C//DTD SVG 1.1//EN" "http://www.w3.org/Graphics/SVG/1.1/DTD/svg11.dtd">
<svg xmlns="http://www.w3.org/2000/svg" xmlns:xlink="http://www.w3.org/1999/xlink" version="1.1" width="1080" height="1080" viewBox="0 0 1080 1080" xml:space="preserve">
<desc>Created with Fabric.js 5.2.4</desc>
<defs>
</defs>
<g transform="matrix(1 0 0 1 540 540)" id="1c109bf4-9aa6-4fe7-8c27-f506861d8b82"  >
<rect style="stroke: none; stroke-width: 1; stroke-dasharray: none; stroke-linecap: butt; stroke-dashoffset: 0; stroke-linejoin: miter; stroke-miterlimit: 4; fill: rgb(255,255,255); fill-rule: nonzero; opacity: 1; visibility: hidden;" vector-effect="non-scaling-stroke"  x="-540" y="-540" rx="0" ry="0" width="1080" height="1080" />
</g>
<g transform="matrix(1 0 0 1 540 540)" id="4cf8cf8a-9d69-47e1-a974-9fbd10e4fdc1"  >
</g>
<g transform="matrix(8.79 0 0 8.79 540 540)" id="Layer_1"  >
<path style="stroke: none; stroke-width: 1; stroke-dasharray: none; stroke-linecap: butt; stroke-dashoffset: 0; stroke-linejoin: miter; stroke-miterlimit: 4; fill: rgb(255,0,0); fill-rule: nonzero; opacity: 1;"  transform=" translate(-61.46, -61.46)" d="M 61.44 0 C 90.76279790679843 -0.00838176914572895 116.0075845632232 20.699062238453212 121.7341433305883 49.457244935225106 C 127.46070209795339 78.215427631997 112.07390012957553 107.0137577197325 84.98461338181191 118.23860029477268 C 57.8953266340483 129.46344286981287 26.649275467062395 119.98811822490768 10.357169972711887 95.607924503406 C -5.9349355216386215 71.22773078190431 -2.734929636617224 38.733770527849686 18 17.999999999999986 C 29.505954743278657 6.455697349576711 45.14100023777935 -0.022912661956723923 61.44 0 Z M 52.55 58.42 C 55.47 56.42 56.94 53.81 56.69 47.84 L 56.69 32.49 C 56.69 30.35 52.769999999999996 30.090000000000003 52.58 32.49 L 52.43 44.94 C 52.43 45.90649831220389 51.64649831220389 46.69 50.68 46.69 C 49.71350168779611 46.69 48.93 45.90649831220389 48.93 44.94 L 49.08 32.059999999999995 C 49.08 29.759999999999994 45.309999999999995 29.529999999999994 45.269999999999996 32.059999999999995 C 45.269999999999996 35.63999999999999 45.12 41.37 45.12 44.94 C 45.21738099873672 45.53435649656665 44.95464376393913 46.130152131893624 44.450110720197145 46.45907326483949 C 43.94557767645516 46.787994397785354 43.294422323544836 46.787994397785354 42.78988927980285 46.45907326483949 C 42.28535623606086 46.130152131893624 42.02261900126327 45.53435649656665 42.12 44.94 L 42.269999999999996 32.15 C 42.205967338951666 31.408033514090818 41.75195971882813 30.75619269093485 41.078212561993425 30.4388928066763 C 40.40446540515871 30.12159292241775 39.61277696366982 30.1867756615116 39 30.61 C 37.62 31.49 37.9 33.26 37.84 34.76 L 37.36000000000001 49.449999999999996 C 37.43000000000001 53.72 38.550000000000004 57.19 41.900000000000006 58.669999999999995 C 42.5426277462227 58.925281516107376 43.21441317070638 59.09994572647313 43.900000000000006 59.19 L 42.77 89.25 C 42.743155935405554 90.2558102461276 43.12055566237184 91.23041831908218 43.81778950612892 91.9558422104305 C 44.515023349885986 92.68126610177883 45.473915863732294 93.09697825780987 46.480000000000004 93.11 L 46.940000000000005 93.11 C 48.06987245113377 93.09166183866766 49.14568022072157 92.6230580707962 49.92860757827103 91.80821281138022 C 50.71153493582048 90.99336755196424 51.13680025183881 89.89970340819767 51.11000000000001 88.77 L 50.11000000000001 59.17999999999999 C 50.9684591784182 59.089081116032226 51.80079617013468 58.83088678390793 52.56000000000001 58.419999999999995 Z M 70.55 88.17 L 70.5 61.760000000000005 C 59.21 55.24000000000001 62.81 30.120000000000005 74.1 30.260000000000005 C 87.82 30.420000000000005 89.44999999999999 58.57000000000001 77.64999999999999 61.660000000000004 L 78.52 88.30000000000001 C 78.69 94.43 70.52 95.00000000000001 70.52 88.17000000000002 Z M 99.29 23.59 C 81.22037551147987 5.553145282711206 52.92645471644768 2.7910365496112313 31.709644845457206 16.992671531082575 C 10.492834974466732 31.19430651255392 2.2614014097887036 58.40494230224678 12.048771127678322 81.98558799429784 C 21.83614084556794 105.56623368634891 46.91681561894455 118.9503642715282 71.95425121221905 113.9537377934592 C 96.99168680549356 108.9571113153902 115.01368452922787 86.971143138966 115 61.440000000000026 C 115.01004278163245 47.235206308641146 109.35588629614082 33.612684158682036 99.29 23.590000000000018 Z" stroke-linecap="round" />
</g>
</svg>